<?xml version="1.0" encoding="UTF-8" standalone="no"?><!DOCTYPE svg PUBLIC "-//W3C//DTD SVG 1.1//EN" "http://www.w3.org/Graphics/SVG/1.1/DTD/svg11.dtd"><svg width="100%" height="100%" viewBox="0 0 887 180" version="1.1" xmlns="http://www.w3.org/2000/svg" xmlns:xlink="http://www.w3.org/1999/xlink" xml:space="preserve" xmlns:serif="http://www.serif.com/" style="fill-rule:evenodd;clip-rule:evenodd;stroke-linejoin:round;stroke-miterlimit:2;"><rect id="BG" x="10.63" y="12.241" width="244.488" height="155.906" style="fill:#fff;"/><path id="Frame" d="M255.118,168.146l-255.118,0l0,10.63l265.748,0l0,-177.165l-265.748,0l-0,166.535l10.63,0l0,-155.906l244.488,0l0,155.906Z"/><path d="M132.874,90.194l-122.244,77.953l0,-155.906l122.244,77.953Z" style="fill:#b20000;"/><path d="M132.874,90.194l122.244,-77.953l0,155.906l-122.244,-77.953Z" style="fill:#b20000;"/><circle cx="132.874" cy="90.194" r="35.433" style="fill:#b20000;"/><path d="M338.721,105.595c20.211,0 31.049,-10.545 31.049,-30.316c0,-13.767 -6.444,-23.286 -18.746,-27.68l-15.231,-5.565c-6.591,-2.343 -10.105,-7.469 -10.105,-14.353c0,-7.909 4.54,-12.302 12.595,-12.302c7.909,0 12.449,4.687 12.449,12.742l0,1.318l17.575,0l0,-1.318c0,-18.014 -10.691,-27.973 -30.023,-27.973c-19.625,0 -30.17,9.813 -30.17,27.973c0,14.206 6.151,23.726 18.307,28.266l15.085,5.419c7.176,2.636 10.691,7.469 10.691,14.939c0,8.787 -4.833,13.474 -13.767,13.474c-9.08,0 -14.206,-4.98 -14.206,-14.206l0,-2.05l-17.575,0l0,2.343c0,19.186 11.131,29.291 32.074,29.291Z" style="fill-rule:nonzero;"/><path d="M415.903,105.595c19.186,0 29.877,-11.424 32.953,-35.003l-17.575,0c-2.05,13.62 -6.883,19.625 -15.378,19.625c-11.716,0 -16.842,-11.424 -16.842,-37.493c0,-25.923 5.272,-37.346 16.842,-37.346c8.494,0 13.327,6.151 15.378,19.625l17.575,0c-3.076,-23.579 -13.767,-35.003 -32.953,-35.003c-23.433,0 -34.417,16.842 -34.417,52.724c0,36.028 10.984,52.871 34.417,52.871Z" style="fill-rule:nonzero;"/><path d="M464.087,104.13l17.575,0l0,-43.79l26.509,0l0,43.79l17.575,0l0,-102.519l-17.575,0l0,43.497l-26.509,0l0,-43.497l-17.575,0l0,102.519Z" style="fill-rule:nonzero;"/><rect x="543.027" y="1.611" width="17.575" height="102.519" style="fill-rule:nonzero;"/><path d="M577.884,104.13l17.575,0l0,-66.93l18.014,66.93l9.666,0l18.014,-66.93l0,66.93l17.575,0l0,-102.519l-24.165,0l-16.257,65.612l-16.257,-65.612l-24.165,0l0,102.519Z" style="fill-rule:nonzero;"/><path d="M706.765,105.595c19.918,0 30.902,-10.252 30.902,-28.998l0,-75.718l-17.575,0l0,75.718c0,9.08 -4.54,13.62 -13.327,13.62c-8.641,0 -13.181,-4.394 -13.181,-13.62l0,-75.718l-17.575,0l0,75.718c0,18.746 10.984,28.998 30.756,28.998Z" style="fill-rule:nonzero;"/><path d="M754.949,104.13l31.342,0c21.236,0 33.831,-18.893 33.831,-51.26c0,-33.245 -11.863,-51.26 -33.831,-51.26l-31.342,0l0,102.519Zm17.575,-14.792l0,-72.935l11.424,0c12.449,0 18.6,12.009 18.6,36.468c0,24.019 -6.298,36.468 -18.6,36.468l-11.424,0Z" style="fill-rule:nonzero;"/><path d="M846.777,104.13l17.575,0l0,-87.288l21.968,0l0,-15.231l-61.658,0l0,15.231l22.115,0l0,87.288Z" style="fill-rule:nonzero;"/><path d="M348.079,179.608c20.536,0 33.257,-7.233 36.999,-20.786l-16.629,0c-3.243,5.072 -9.977,7.732 -19.788,7.732c-14.55,0 -22.116,-5.82 -22.116,-16.878c0,-11.141 7.566,-16.961 22.116,-16.961c9.894,0 16.546,2.661 19.788,7.732l16.629,0c-3.741,-13.552 -16.462,-20.703 -36.999,-20.703c-24.694,0 -38.163,10.559 -38.163,29.932c0,19.289 13.469,29.932 38.163,29.932Z" style="fill:#b20000;fill-rule:nonzero;"/><path d="M391.314,178.776l16.629,0l0,-22.698l35.669,0l0,22.698l16.629,0l0,-58.2l-16.629,0l0,22.532l-35.669,0l0,-22.532l-16.629,0l0,58.2Z" style="fill:#b20000;fill-rule:nonzero;"/><path d="M467.307,178.776l61.609,0l0,-13.054l-44.981,0l0,-9.645l36.666,0l0,-12.97l-36.666,0l0,-9.561l44.981,0l0,-12.97l-61.609,0l0,58.2Z" style="fill:#b20000;fill-rule:nonzero;"/><path d="M569.574,179.608c20.536,0 33.257,-7.233 36.999,-20.786l-16.629,0c-3.243,5.072 -9.977,7.732 -19.788,7.732c-14.55,0 -22.116,-5.82 -22.116,-16.878c0,-11.141 7.566,-16.961 22.116,-16.961c9.894,0 16.546,2.661 19.788,7.732l16.629,0c-3.741,-13.552 -16.462,-20.703 -36.999,-20.703c-24.694,0 -38.163,10.559 -38.163,29.932c0,19.289 13.469,29.932 38.163,29.932Z" style="fill:#b20000;fill-rule:nonzero;"/><path d="M665.272,178.776l19.539,0l-19.289,-29.1l19.289,-29.1l-19.539,0l-14.883,22.532l-20.952,0l0,-22.532l-16.629,0l0,58.2l16.629,0l0,-22.698l20.869,0l14.966,22.698Z" style="fill:#b20000;fill-rule:nonzero;"/></svg>