<?xml version="1.0" encoding="UTF-8" standalone="no"?>
<!DOCTYPE svg PUBLIC "-//W3C//DTD SVG 1.1//EN" "http://www.w3.org/Graphics/SVG/1.1/DTD/svg11.dtd">
<svg width="100%" height="100%" viewBox="0 0 1069 616" version="1.1" xmlns="http://www.w3.org/2000/svg" xmlns:xlink="http://www.w3.org/1999/xlink" xml:space="preserve" xmlns:serif="http://www.serif.com/" style="fill-rule:evenodd;clip-rule:evenodd;stroke-linejoin:round;stroke-miterlimit:2;">
    <g id="BG" transform="matrix(0.1,0,0,0.1,-110.532955,-118.110236)">
        <rect x="1322.835" y="1322.835" width="3259.843" height="2078.74" style="fill:white;"/>
    </g>
    <g id="Frame" transform="matrix(0.1,0,0,0.1,-110.532955,-118.110236)">
        <path d="M4582.677,3401.575L1181.102,3401.575L1181.102,3543.307L4724.409,3543.307L4724.409,1181.102L1181.102,1181.102L1181.102,3401.575L1322.835,3401.575L1322.835,1322.835L4582.677,1322.835L4582.677,3401.575Z"/>
    </g>
    <g transform="matrix(0,0.303448,-0.181579,0,240.503099,-86.179745)">
        <path d="M673.228,307.087L1015.748,1204.724L330.709,1204.724L673.228,307.087Z" style="fill:rgb(178,0,0);"/>
    </g>
    <g transform="matrix(0,-0.303448,0.181579,0,128.982171,322.400217)">
        <path d="M673.228,307.087L1015.748,1204.724L330.709,1204.724L673.228,307.087Z" style="fill:rgb(178,0,0);"/>
    </g>
    <g transform="matrix(0.133333,0,0,0.133333,-51.477837,-23.622047)">
        <circle cx="1771.654" cy="1062.992" r="354.331" style="fill:rgb(178,0,0);"/>
    </g>
    <g transform="matrix(5.400289,0,0,5.400289,-30763.006435,-31279.393569)">
        <g transform="matrix(50,0,0,50,5695.497976,5884.031824)">
            <path d="M0.24,0.01C0.378,0.01 0.452,-0.062 0.452,-0.197C0.452,-0.291 0.408,-0.356 0.324,-0.386L0.22,-0.424C0.175,-0.44 0.151,-0.475 0.151,-0.522C0.151,-0.576 0.182,-0.606 0.237,-0.606C0.291,-0.606 0.322,-0.574 0.322,-0.519L0.322,-0.51L0.442,-0.51L0.442,-0.519C0.442,-0.642 0.369,-0.71 0.237,-0.71C0.103,-0.71 0.031,-0.643 0.031,-0.519C0.031,-0.422 0.073,-0.357 0.156,-0.326L0.259,-0.289C0.308,-0.271 0.332,-0.238 0.332,-0.187C0.332,-0.127 0.299,-0.095 0.238,-0.095C0.176,-0.095 0.141,-0.129 0.141,-0.192L0.141,-0.206L0.021,-0.206L0.021,-0.19C0.021,-0.059 0.097,0.01 0.24,0.01Z" style="fill-rule:nonzero;"/>
        </g>
        <g transform="matrix(50,0,0,50,5720.147976,5884.031824)">
            <path d="M0.274,0.01C0.405,0.01 0.478,-0.068 0.499,-0.229L0.379,-0.229C0.365,-0.136 0.332,-0.095 0.274,-0.095C0.194,-0.095 0.159,-0.173 0.159,-0.351C0.159,-0.528 0.195,-0.606 0.274,-0.606C0.332,-0.606 0.365,-0.564 0.379,-0.472L0.499,-0.472C0.478,-0.633 0.405,-0.711 0.274,-0.711C0.114,-0.711 0.039,-0.596 0.039,-0.351C0.039,-0.105 0.114,0.01 0.274,0.01Z" style="fill-rule:nonzero;"/>
        </g>
        <g transform="matrix(50,0,0,50,5747.847976,5884.031824)">
            <path d="M0.049,-0L0.169,-0L0.169,-0.299L0.35,-0.299L0.35,-0L0.47,-0L0.47,-0.7L0.35,-0.7L0.35,-0.403L0.169,-0.403L0.169,-0.7L0.049,-0.7L0.049,-0Z" style="fill-rule:nonzero;"/>
        </g>
        <g transform="matrix(50,0,0,50,5774.797976,5884.031824)">
            <rect x="0.049" y="-0.7" width="0.12" height="0.7" style="fill-rule:nonzero;"/>
        </g>
        <g transform="matrix(50,0,0,50,5786.697976,5884.031824)">
            <path d="M0.049,-0L0.169,-0L0.169,-0.457L0.292,-0L0.358,-0L0.481,-0.457L0.481,-0L0.601,-0L0.601,-0.7L0.436,-0.7L0.325,-0.252L0.214,-0.7L0.049,-0.7L0.049,-0Z" style="fill-rule:nonzero;"/>
        </g>
        <g transform="matrix(50,0,0,50,5820.197976,5884.031824)">
            <path d="M0.259,0.01C0.395,0.01 0.47,-0.06 0.47,-0.188L0.47,-0.705L0.35,-0.705L0.35,-0.188C0.35,-0.126 0.319,-0.095 0.259,-0.095C0.2,-0.095 0.169,-0.125 0.169,-0.188L0.169,-0.705L0.049,-0.705L0.049,-0.188C0.049,-0.06 0.124,0.01 0.259,0.01Z" style="fill-rule:nonzero;"/>
        </g>
        <g transform="matrix(50,0,0,50,5847.147976,5884.031824)">
            <path d="M0.049,-0L0.263,-0C0.408,-0 0.494,-0.129 0.494,-0.35C0.494,-0.577 0.413,-0.7 0.263,-0.7L0.049,-0.7L0.049,-0ZM0.169,-0.101L0.169,-0.599L0.247,-0.599C0.332,-0.599 0.374,-0.517 0.374,-0.35C0.374,-0.186 0.331,-0.101 0.247,-0.101L0.169,-0.101Z" style="fill-rule:nonzero;"/>
        </g>
        <g transform="matrix(50,0,0,50,5873.397976,5884.031824)">
            <path d="M0.151,-0L0.271,-0L0.271,-0.596L0.421,-0.596L0.421,-0.7L0,-0.7L0,-0.596L0.151,-0.596L0.151,-0Z" style="fill-rule:nonzero;"/>
        </g>
    </g>
    <g transform="matrix(3.240174,0,0,3.240174,-19030.703905,-45264.35573)">
        <g transform="matrix(41.666667,0,0,41.666667,5873.903779,14159.284133)">
            <path d="M0.492,0.01C0.739,0.01 0.892,-0.077 0.937,-0.24L0.737,-0.24C0.698,-0.179 0.617,-0.147 0.499,-0.147C0.324,-0.147 0.233,-0.217 0.233,-0.35C0.233,-0.484 0.324,-0.554 0.499,-0.554C0.618,-0.554 0.698,-0.522 0.737,-0.461L0.937,-0.461C0.892,-0.624 0.739,-0.71 0.492,-0.71C0.195,-0.71 0.033,-0.583 0.033,-0.35C0.033,-0.118 0.195,0.01 0.492,0.01Z" style="fill:rgb(178,0,0);fill-rule:nonzero;"/>
        </g>
        <g transform="matrix(41.666667,0,0,41.666667,5914.278779,14159.284133)">
            <path d="M0.043,-0L0.243,-0L0.243,-0.273L0.672,-0.273L0.672,-0L0.872,-0L0.872,-0.7L0.672,-0.7L0.672,-0.429L0.243,-0.429L0.243,-0.7L0.043,-0.7L0.043,-0Z" style="fill:rgb(178,0,0);fill-rule:nonzero;"/>
        </g>
        <g transform="matrix(41.666667,0,0,41.666667,5952.362113,14159.284133)">
            <path d="M0.043,-0L0.784,-0L0.784,-0.157L0.243,-0.157L0.243,-0.273L0.684,-0.273L0.684,-0.429L0.243,-0.429L0.243,-0.544L0.784,-0.544L0.784,-0.7L0.043,-0.7L0.043,-0Z" style="fill:rgb(178,0,0);fill-rule:nonzero;"/>
        </g>
        <g transform="matrix(41.666667,0,0,41.666667,5984.903779,14159.284133)">
            <path d="M0.492,0.01C0.739,0.01 0.892,-0.077 0.937,-0.24L0.737,-0.24C0.698,-0.179 0.617,-0.147 0.499,-0.147C0.324,-0.147 0.233,-0.217 0.233,-0.35C0.233,-0.484 0.324,-0.554 0.499,-0.554C0.618,-0.554 0.698,-0.522 0.737,-0.461L0.937,-0.461C0.892,-0.624 0.739,-0.71 0.492,-0.71C0.195,-0.71 0.033,-0.583 0.033,-0.35C0.033,-0.118 0.195,0.01 0.492,0.01Z" style="fill:rgb(178,0,0);fill-rule:nonzero;"/>
        </g>
        <g transform="matrix(41.666667,0,0,41.666667,6025.278779,14159.284133)">
            <path d="M0.674,-0L0.909,-0L0.677,-0.35L0.909,-0.7L0.674,-0.7L0.495,-0.429L0.243,-0.429L0.243,-0.7L0.043,-0.7L0.043,-0L0.243,-0L0.243,-0.273L0.494,-0.273L0.674,-0Z" style="fill:rgb(178,0,0);fill-rule:nonzero;"/>
        </g>
    </g>
</svg>
