<?xml version="1.0" encoding="UTF-8" standalone="no"?><!DOCTYPE svg PUBLIC "-//W3C//DTD SVG 1.1//EN" "http://www.w3.org/Graphics/SVG/1.1/DTD/svg11.dtd"><svg width="100%" height="100%" viewBox="0 0 1932 183" version="1.1" xmlns="http://www.w3.org/2000/svg" xmlns:xlink="http://www.w3.org/1999/xlink" xml:space="preserve" xmlns:serif="http://www.serif.com/" style="fill-rule:evenodd;clip-rule:evenodd;stroke-linejoin:round;stroke-miterlimit:2;"><rect id="BG" x="10.63" y="13.43" width="244.488" height="155.906" style="fill:#fff;"/><path id="Frame" d="M255.118,169.336l-255.118,0l0,10.63l265.748,0l0,-177.165l-265.748,0l-0,166.535l10.63,0l0,-155.906l244.488,0l0,155.906Z"/><path d="M132.874,91.383l-122.244,77.953l0,-155.906l122.244,77.953Z" style="fill:#b20000;"/><path d="M132.874,91.383l122.244,-77.953l0,155.906l-122.244,-77.953Z" style="fill:#b20000;"/><circle cx="132.874" cy="91.383" r="35.433" style="fill:#b20000;"/><path d="M393.806,182.513c34.933,0 53.665,-18.226 53.665,-52.4c0,-23.795 -11.138,-40.249 -32.402,-47.843l-26.326,-9.619c-11.391,-4.05 -17.467,-12.91 -17.467,-24.808c0,-13.669 7.847,-21.264 21.77,-21.264c13.669,0 21.517,8.1 21.517,22.023l0,2.278l30.377,0l0,-2.278c0,-31.136 -18.479,-48.349 -51.893,-48.349c-33.921,0 -52.147,16.96 -52.147,48.349c0,24.554 10.632,41.008 31.642,48.856l26.073,9.366c12.404,4.556 18.479,12.91 18.479,25.82c0,15.188 -8.354,23.289 -23.795,23.289c-15.695,0 -24.554,-8.607 -24.554,-24.554l0,-3.544l-30.377,0l0,4.05c0,33.161 19.239,50.628 55.437,50.628Z" style="fill-rule:nonzero;"/><path d="M527.21,182.513c33.161,0 51.64,-19.745 56.956,-60.5l-30.377,0c-3.544,23.542 -11.898,33.921 -26.58,33.921c-20.251,0 -29.111,-19.745 -29.111,-64.803c0,-44.806 9.113,-64.55 29.111,-64.55c14.682,0 23.036,10.632 26.58,33.921l30.377,0c-5.316,-40.755 -23.795,-60.5 -56.956,-60.5c-40.502,0 -59.488,29.111 -59.488,91.13c0,62.272 18.985,91.383 59.488,91.383Z" style="fill-rule:nonzero;"/><path d="M610.493,179.982l30.377,0l0,-75.688l45.818,0l0,75.688l30.377,0l0,-177.197l-30.377,0l0,75.182l-45.818,0l0,-75.182l-30.377,0l0,177.197Z" style="fill-rule:nonzero;"/><rect x="746.934" y="2.785" width="30.377" height="177.197" style="fill-rule:nonzero;"/><path d="M807.181,179.982l30.377,0l0,-115.684l31.136,115.684l16.707,0l31.136,-115.684l0,115.684l30.377,0l0,-177.197l-41.768,0l-28.098,113.406l-28.098,-113.406l-41.768,0l0,177.197Z" style="fill-rule:nonzero;"/><path d="M1029.943,182.513c34.427,0 53.412,-17.72 53.412,-50.121l0,-130.873l-30.377,0l0,130.873c0,15.695 -7.847,23.542 -23.036,23.542c-14.935,0 -22.782,-7.594 -22.782,-23.542l0,-130.873l-30.377,0l0,130.873c0,32.402 18.985,50.121 53.159,50.121Z" style="fill-rule:nonzero;"/><path d="M1113.226,179.982l54.172,0c36.705,0 58.475,-32.655 58.475,-88.598c0,-57.462 -20.504,-88.598 -58.475,-88.598l-54.172,0l0,177.197Zm30.377,-25.567l0,-126.063l19.745,0c21.517,0 32.149,20.757 32.149,63.032c0,41.515 -10.885,63.032 -32.149,63.032l-19.745,0Z" style="fill-rule:nonzero;"/><path d="M1271.944,179.982l30.377,0l0,-150.871l37.971,0l0,-26.326l-106.571,0l0,26.326l38.224,0l0,150.871Z" style="fill-rule:nonzero;"/><path d="M1418.551,92.657c31.263,0 50.628,-11.012 56.323,-31.642l-25.314,0c-4.936,7.721 -15.188,11.771 -30.123,11.771c-22.15,0 -33.667,-8.86 -33.667,-25.694c0,-16.96 11.518,-25.82 33.667,-25.82c15.062,0 25.187,4.05 30.123,11.771l25.314,0c-5.696,-20.631 -25.061,-31.516 -56.323,-31.516c-37.591,0 -58.095,16.074 -58.095,45.565c0,29.364 20.504,45.565 58.095,45.565Z" style="fill:#b20000;fill-rule:nonzero;"/><path d="M1484.367,91.391l25.314,0l0,-34.553l54.298,0l0,34.553l25.314,0l0,-88.598l-25.314,0l0,34.3l-54.298,0l0,-34.3l-25.314,0l0,88.598Z" style="fill:#b20000;fill-rule:nonzero;"/><path d="M1600.051,91.391l93.788,0l0,-19.871l-68.474,0l0,-14.682l55.817,0l0,-19.745l-55.817,0l0,-14.555l68.474,0l0,-19.745l-93.788,0l0,88.598Z" style="fill:#b20000;fill-rule:nonzero;"/><path d="M1755.731,92.657c31.263,0 50.628,-11.012 56.323,-31.642l-25.314,0c-4.936,7.721 -15.188,11.771 -30.123,11.771c-22.15,0 -33.667,-8.86 -33.667,-25.694c0,-16.96 11.518,-25.82 33.667,-25.82c15.062,0 25.187,4.05 30.123,11.771l25.314,0c-5.696,-20.631 -25.061,-31.516 -56.323,-31.516c-37.591,0 -58.095,16.074 -58.095,45.565c0,29.364 20.504,45.565 58.095,45.565Z" style="fill:#b20000;fill-rule:nonzero;"/><path d="M1901.413,91.391l29.744,0l-29.364,-44.299l29.364,-44.299l-29.744,0l-22.656,34.3l-31.895,0l0,-34.3l-25.314,0l0,88.598l25.314,0l0,-34.553l31.769,0l22.782,34.553Z" style="fill:#b20000;fill-rule:nonzero;"/></svg>